HIERARCHY
ROOT Hips
{
	OFFSET	0.00	0.00	0.00
	CHANNELS 6 Xposition Yposition Zposition Zrotation Xrotation Yrotation
	JOINT LeftUpLeg
	{
		OFFSET	 0.126116	-0.014019	-0.065224
		CHANNELS 3 Zrotation Xrotation Yrotation
		JOINT LeftLeg
		{
			OFFSET	 0.000000	 0.000000	 0.569914
			CHANNELS 3 Zrotation Xrotation Yrotation
			JOINT LeftFoot
			{
				OFFSET	 0.000000	 0.000000	 0.544423
				CHANNELS 3 Zrotation Xrotation Yrotation
				JOINT LeftToeBase
				{
					OFFSET	 0.000000	 0.000000	 0.207117
					CHANNELS 3 Zrotation Xrotation Yrotation
					End Site
					{
						OFFSET	 0.000000	 0.000000	 0.207117
					}
				}
			}
		}
	}
	JOINT RightUpLeg
	{
		OFFSET	-0.124023	-0.008373	-0.065224
		CHANNELS 3 Zrotation Xrotation Yrotation
		JOINT RightLeg
		{
			OFFSET	 0.000000	 0.000000	 0.570047
			CHANNELS 3 Zrotation Xrotation Yrotation
			JOINT RightFoot
			{
				OFFSET	 0.000000	 0.000000	 0.544354
				CHANNELS 3 Zrotation Xrotation Yrotation
				JOINT RightToeBase
				{
					OFFSET	 0.000000	 0.000000	 0.207540
					CHANNELS 3 Zrotation Xrotation Yrotation
					End Site
					{
						OFFSET	 0.000000	 0.000000	 0.207540
					}
				}
			}
		}
	}
	JOINT Spine
	{
		OFFSET	 0.000184	-0.007763	 0.117403
		CHANNELS 3 Zrotation Xrotation Yrotation
		JOINT Spine1
		{
			OFFSET	 0.000000	 0.000000	 0.137269
			CHANNELS 3 Zrotation Xrotation Yrotation
			JOINT Spine2
			{
				OFFSET	 0.000000	 0.000000	 0.156879
				CHANNELS 3 Zrotation Xrotation Yrotation
				JOINT LeftShoulder
				{
					OFFSET	 0.080501	-0.002496	 0.160144
					CHANNELS 3 Zrotation Xrotation Yrotation
					JOINT LeftArm
					{
						OFFSET	 0.000000	 0.000000	 0.164363
						CHANNELS 3 Zrotation Xrotation Yrotation
						JOINT LeftForeArm
						{
							OFFSET	 0.000000	 0.000000	 0.364576
							CHANNELS 3 Zrotation Xrotation Yrotation
							JOINT LeftHand
							{
								OFFSET	 0.000000	 0.000000	 0.360812
								CHANNELS 3 Zrotation Xrotation Yrotation
								JOINT LeftHandIndex1
								{
									OFFSET	 0.000000	 0.000000	 0.086006
									CHANNELS 3 Zrotation Xrotation Yrotation
									JOINT LeftHandIndex2
									{
										OFFSET	 0.000000	 0.000000	 0.047236
										CHANNELS 3 Zrotation Xrotation Yrotation
										JOINT LeftHandIndex3
										{
											OFFSET	-0.004284	-0.000551	 0.038166
											CHANNELS 3 Zrotation Xrotation Yrotation
											End Site
											{
												OFFSET	-0.004284	-0.000551	 0.038166
											}
										}
									}
								}
							}
						}
					}
				}
				JOINT Neck
				{
					OFFSET	 0.000000	 0.000000	 0.176489
					CHANNELS 3 Zrotation Xrotation Yrotation
					JOINT Head
					{
						OFFSET	 0.000000	-0.001747	 0.077940
						CHANNELS 3 Zrotation Xrotation Yrotation
						End Site
						{
							OFFSET	 0.000000	-0.001747	 0.077940
						}
					}
				}
				JOINT RightShoulder
				{
					OFFSET	-0.080363	 0.000306	 0.159706
					CHANNELS 3 Zrotation Xrotation Yrotation
					JOINT RightArm
					{
						OFFSET	 0.000000	 0.000000	 0.164196
						CHANNELS 3 Zrotation Xrotation Yrotation
						JOINT RightForeArm
						{
							OFFSET	 0.000000	 0.000000	 0.365611
							CHANNELS 3 Zrotation Xrotation Yrotation
							JOINT RightHand
							{
								OFFSET	 0.000000	 0.000000	 0.360648
								CHANNELS 3 Zrotation Xrotation Yrotation
								JOINT RightHandIndex1
								{
									OFFSET	 0.000000	 0.000000	 0.069977
									CHANNELS 3 Zrotation Xrotation Yrotation
									JOINT RightHandIndex2
									{
										OFFSET	 0.000000	 0.000000	 0.052305
										CHANNELS 3 Zrotation Xrotation Yrotation
										JOINT RightHandIndex3
										{
											OFFSET	 0.009002	-0.000782	 0.042196
											CHANNELS 3 Zrotation Xrotation Yrotation
											End Site
											{
												OFFSET	 0.009002	-0.000782	 0.042196
											}
										}
									}
								}
							}
						}
					}
				}
			}
		}
	}
}
MOTION
Frames:    13
Frame Time: 0.03333334
-4.162443	-21.769070	 1.071391	-20.809750	 17.418840	 3.763393	 3.545094	-34.853840	 175.405300	-1.392199	-43.070780	-0.367847	-0.764479	 80.956670	 0.494074	-2.352938	 34.080640	-0.126957	-0.741007	-36.024990	-179.493200	-2.958871	-43.033460	-0.943052	-1.603803	 81.257220	 0.529116	 2.406646	 19.871650	-0.175645	 4.036450	 14.818760	 0.616130	 6.018221	 1.375939	-1.904306	 6.579323	-4.174909	 0.673976	-125.597900	 89.279090	-141.966600	 55.613720	 66.111790	-61.714410	-17.723970	 2.358611	-26.758000	-1.921590	-5.051857	-5.391744	-5.634307	-12.188180	-1.264930	-5.213516	-0.193813	 3.566525	-1.378229	 35.397820	-2.634230	 0.802983	 0.114546	-3.799065	 1.655921	-6.879810	 1.577093	 93.698570	 85.950640	 172.018500	-61.091340	 75.092700	 70.386980	 4.390141	-9.851734	 36.332920	-24.111720	-6.011358	 9.622111	-9.860329	-9.909204	-38.861240	 5.070815	-0.697434	-9.399699	-2.350882	 35.473990	 5.254307
-4.165174	-21.784150	 1.071899	-20.696050	 18.104490	 3.801052	 3.591967	-34.961620	 175.574900	-1.965970	-43.211050	-0.739724	-0.983359	 81.694850	 0.266015	-2.351650	 34.254570	-0.131076	-0.768292	-35.711600	-179.413000	-2.612691	-42.561330	-0.728695	-1.557162	 82.441060	 0.791739	 2.405615	 20.844570	-0.156295	 3.628767	 14.488730	 0.552348	 5.241314	 1.094728	-1.982777	 5.523467	-4.563466	 0.584228	-123.831900	 89.239210	-143.685700	 60.022010	 67.315030	-63.256340	-16.666450	 1.992118	-25.184100	-1.294491	-5.089553	-5.388440	-5.198612	-11.759030	-0.285854	-5.213516	-0.193813	 3.566525	-1.378229	 35.397820	-2.634230	 0.736640	-0.136364	-3.616600	 1.315728	-7.408205	 1.534221	 93.665960	 85.990300	 172.144400	-54.866290	 77.702800	 61.975160	 3.576630	-8.959480	 30.450320	-26.079060	-6.018386	 9.607399	-9.334609	-8.853560	-38.382690	 5.070815	-0.697434	-9.399699	-2.350882	 35.473990	 5.254307
-4.167089	-21.793720	 1.071953	-20.816670	 18.474680	 3.841881	 3.553969	-34.979100	 175.626100	-2.068674	-43.475770	-0.843729	-1.053499	 82.139320	 0.211679	-2.345928	 34.999340	-0.148856	-0.745062	-35.440700	-179.466700	-2.385568	-42.335110	-0.563061	-1.479767	 82.995210	 0.933184	 2.404954	 21.335400	-0.146465	 3.402650	 14.295440	 0.579936	 4.737848	 0.864483	-1.964704	 4.781475	-4.869123	 0.518308	-121.194100	 89.171490	-146.259000	 62.568890	 67.974240	-64.126380	-15.895590	 1.751065	-24.287460	-0.793462	-5.111290	-5.384801	-4.671516	-11.258430	 0.918794	-5.213516	-0.193813	 3.566525	-1.378229	 35.397820	-2.634230	 0.747259	-0.366806	-3.476627	 1.070789	-7.773236	 1.406584	 93.681690	 86.055980	 172.210400	-48.231670	 79.172740	 53.794420	 3.214271	-8.578651	 27.911850	-27.287450	-6.032310	 9.580956	-9.026582	-8.189163	-38.126940	 5.070815	-0.697434	-9.399699	-2.350882	 35.473990	 5.254307
-4.169139	-21.803990	 1.072295	-21.118470	 18.839200	 3.925153	 3.550236	-34.897930	 175.658400	-2.135804	-43.704120	-0.904327	-1.106223	 82.474180	 0.193399	-2.338797	 35.869660	-0.169963	-0.730178	-35.270650	-179.573400	-2.305450	-42.194050	-0.500270	-1.457015	 83.311850	 1.000911	 2.404670	 21.526490	-0.142634	 3.116463	 14.115620	 0.566500	 4.130142	 0.647873	-1.834982	 3.908480	-5.169905	 0.433773	-116.538300	 89.031870	-150.867400	 64.771130	 68.766050	-64.662990	-15.377300	 1.556244	-23.424250	-0.385459	-5.130842	-5.381217	-4.153010	-10.716780	 2.123609	-5.213516	-0.193813	 3.566525	-1.378229	 35.397820	-2.634230	 0.824113	-0.531223	-3.308454	 0.815108	-8.213943	 1.445312	 93.891240	 86.249650	 172.087000	-39.568740	 80.286750	 43.584240	 3.106885	-8.163633	 25.915290	-28.175000	-6.045649	 9.553520	-8.798341	-7.644381	-37.971290	 5.070815	-0.697434	-9.399699	-2.350882	 35.473990	 5.254307
-4.170743	-21.813040	 1.073556	-21.457000	 19.214640	 3.948964	 3.573743	-34.797390	 175.731900	-2.333346	-43.641680	-1.027954	-1.178549	 82.490100	 0.128515	-2.332574	 36.585070	-0.187602	-0.783358	-35.346310	-179.505700	-2.478060	-42.132950	-0.648560	-1.573032	 83.370760	 0.954995	 2.404594	 21.578290	-0.141596	 2.723957	 13.924770	 0.550232	 3.439794	 0.525428	-1.637385	 3.034592	-5.358604	 0.341692	-111.321000	 88.819650	-156.103400	 66.247810	 69.436350	-64.951610	-15.247160	 1.460062	-22.767250	-0.222179	-5.147209	-5.379157	-3.965686	-10.648230	 2.565249	-5.213516	-0.193813	 3.566525	-1.378229	 35.397820	-2.634230	 0.902795	-0.609610	-3.052306	 0.627229	-8.528854	 1.582459	 94.269170	 86.493450	 171.744400	-32.213920	 80.737140	 34.961300	 3.096574	-7.856665	 24.808640	-28.567350	-6.055029	 9.533609	-8.709801	-7.574491	-37.809760	 5.070815	-0.697434	-9.399699	-2.350882	 35.473990	 5.254307
-4.172282	-21.820410	 1.075179	-21.776030	 19.548900	 3.905063	 3.574776	-34.784700	 175.771100	-2.567992	-43.484230	-1.182783	-1.248769	 82.323480	 0.030795	-2.327488	 37.143130	-0.201537	-0.853029	-35.404430	-179.359500	-2.655436	-42.068400	-0.810425	-1.704389	 83.404770	 0.907329	 2.404520	 21.626840	-0.140623	 2.298227	 13.778270	 0.632615	 2.736174	 0.469600	-1.467778	 2.190401	-5.456507	 0.248466	-108.625000	 88.667790	-158.828700	 67.152600	 69.827970	-65.265440	-14.776400	 1.259213	-22.253000	 0.351918	-5.162979	-5.373460	-3.852434	-10.898940	 2.833248	-5.213516	-0.193813	 3.566525	-1.378229	 35.397820	-2.634230	 0.957520	-0.759517	-2.796230	 0.476914	-8.587436	 1.740509	 94.663390	 86.688550	 171.336900	-27.277970	 80.812310	 29.112230	 2.895091	-7.780170	 24.339360	-28.911040	-6.059455	 9.521375	-8.653082	-7.631698	-37.633950	 5.070815	-0.697434	-9.399699	-2.350882	 35.473990	 5.254307
-4.174258	-21.827430	 1.076672	-22.042350	 19.783950	 3.880760	 3.573521	-34.503440	 175.789100	-2.699859	-43.281220	-1.270036	-1.297674	 82.190690	-0.022031	-2.323274	 37.590520	-0.212829	-0.826973	-35.339850	-179.260100	-2.894460	-41.907410	-0.959032	-1.822026	 83.378430	 0.855857	 2.404583	 21.584410	-0.141466	 1.832511	 13.607870	 0.745661	 1.975959	 0.438399	-1.357966	 1.283352	-5.514589	 0.146210	-107.306900	 88.588890	-160.204900	 67.534610	 70.030840	-65.427580	-14.240270	 1.056887	-21.946690	 1.013093	-5.174580	-5.366667	-3.996882	-11.025220	 2.494353	-5.213516	-0.193813	 3.566525	-1.378229	 35.397820	-2.634230	 1.010769	-0.803719	-2.582519	 0.303088	-8.669209	 1.777100	 94.865480	 86.793320	 171.149800	-24.024710	 80.710850	 25.158420	 2.736291	-7.793569	 24.262360	-29.068230	-6.060940	 9.517928	-8.595223	-7.705748	-37.443900	 5.070815	-0.697434	-9.399699	-2.350882	 35.473990	 5.254307
-4.176892	-21.834000	 1.077988	-22.137890	 19.949120	 3.855626	 3.566946	-34.267430	 175.806800	-2.658367	-43.064300	-1.239408	-1.317199	 82.218910	 0.013727	-2.319712	 37.956540	-0.222147	-0.735729	-35.027620	-179.226800	-2.965851	-41.531700	-0.957765	-1.810158	 83.494670	 0.849183	 2.404873	 21.391350	-0.145345	 1.279765	 13.354690	 0.868210	 1.114653	 0.425593	-1.305406	 0.287363	-5.542581	 0.032807	-106.838300	 88.574940	-160.751500	 67.326800	 70.050130	-65.215860	-14.401560	 1.107753	-22.060630	 0.882255	-5.169487	-5.368372	-4.147081	-11.116030	 2.142994	-5.213516	-0.193813	 3.566525	-1.378229	 35.397820	-2.634230	 1.060099	-0.770196	-2.537277	 0.125804	-8.784506	 1.874797	 94.909650	 86.828430	 171.129900	-22.334470	 80.512510	 22.983220	 2.734803	-7.792943	 24.404780	-28.943790	-6.060001	 9.520561	-8.541449	-7.790977	-37.256160	 5.070815	-0.697434	-9.399699	-2.350882	 35.473990	 5.254307
-4.179661	-21.838970	 1.079026	-21.974220	 20.011240	 3.830836	 3.530439	-34.063870	 175.773600	-2.521546	-42.909580	-1.162785	-1.315223	 82.283910	 0.081685	-2.317107	 38.217830	-0.228855	-0.689717	-34.499470	-179.262500	-2.839214	-40.978660	-0.850232	-1.695405	 83.621640	 0.862479	 2.405103	 21.234290	-0.148498	 0.707005	 13.166330	 0.942299	 0.282423	 0.398588	-1.339020	-0.598304	-5.551060	-0.068350	-107.012300	 88.604510	-160.630100	 66.596260	 70.002370	-64.734090	-14.805070	 1.244132	-22.644070	 0.569062	-5.152706	-5.372497	-4.228370	-11.323050	 1.955880	-5.213516	-0.193813	 3.566525	-1.378229	 35.397820	-2.634230	 1.067888	-0.774984	-2.524472	-0.012409	-8.839108	 1.815634	 94.918220	 86.799980	 171.069200	-22.289840	 80.360530	 22.879100	 2.736896	-7.815670	 24.576550	-28.840130	-6.059289	 9.523074	-8.507584	-7.861674	-37.126340	 5.070815	-0.697434	-9.399699	-2.350882	 35.473990	 5.254307
-4.182965	-21.843300	 1.079992	-21.758780	 19.995210	 3.813313	 3.380740	-33.913120	 175.621600	-2.305518	-42.814540	-1.097787	-1.314466	 82.352460	 0.142719	-2.316160	 38.313300	-0.231297	-0.750676	-33.919690	-179.424000	-2.634460	-40.432860	-0.750887	-1.733663	 83.663760	 1.025204	 2.405326	 21.068940	-0.151809	 0.078812	 13.014260	 1.052309	-0.645049	 0.342497	-1.402550	-1.602028	-5.538547	-0.182852	-107.727900	 88.663230	-159.932100	 65.275380	 69.925900	-64.102470	-15.281300	 1.350710	-23.384210	 0.411474	-5.134844	-5.375062	-4.728324	-12.155480	 0.818085	-5.213516	-0.193813	 3.566525	-1.378229	 35.397820	-2.634230	 1.056970	-0.837107	-2.571134	-0.200926	-8.833248	 1.700151	 94.821320	 86.722790	 171.113300	-23.177270	 80.292340	 24.115210	 2.897781	-7.865457	 24.842100	-28.705140	-6.058683	 9.525364	-8.518811	-7.903480	-37.124110	 5.070815	-0.697434	-9.399699	-2.350882	 35.473990	 5.254307
-4.185726	-21.846780	 1.080637	-21.723720	 19.936360	 3.849978	 3.250554	-33.583490	 175.485200	-2.215265	-42.708560	-1.111367	-1.334018	 82.371280	 0.138773	-2.315828	 38.345670	-0.232135	-0.779813	-33.558850	-179.507300	-2.616269	-40.047600	-0.757214	-1.732050	 83.747150	 1.021623	 2.405482	 20.943800	-0.154306	-0.391117	 12.869380	 1.164588	-1.417348	 0.327533	-1.439077	-2.536844	-5.477809	-0.288245	-108.714800	 88.727900	-158.935600	 63.555980	 69.890750	-63.260850	-15.912040	 1.454797	-24.088700	 0.259480	-5.120051	-5.377187	-5.017357	-13.124650	 0.196703	-5.213516	-0.193813	 3.566525	-1.378229	 35.397820	-2.634230	 1.052172	-0.868371	-2.609966	-0.435800	-8.790747	 1.595117	 94.679660	 86.657540	 171.258900	-24.802480	 80.208310	 26.115260	 3.036383	-7.924514	 25.190810	-28.504900	-6.056083	 9.532418	-8.554822	-7.920713	-37.197850	 5.070815	-0.697434	-9.399699	-2.350882	 35.473990	 5.254307
-4.188756	-21.850300	 1.081175	-21.836070	 19.858310	 3.817621	 3.204721	-33.021870	 175.424300	-2.287338	-42.402460	-1.183361	-1.390652	 82.306530	 0.096549	-2.315372	 38.390320	-0.233289	-0.827508	-33.194890	-179.525700	-2.696476	-39.719990	-0.836326	-1.805909	 83.885380	 1.008162	 2.405567	 20.879600	-0.155585	-0.853050	 12.668600	 1.405654	-2.234614	 0.355317	-1.423571	-3.578072	-5.372692	-0.403359	-109.942300	 88.795690	-157.683900	 61.338030	 69.778620	-62.069010	-16.818440	 1.664294	-24.981020	-0.158127	-5.096931	-5.381353	-5.895539	-14.381940	-1.697268	-5.213516	-0.193813	 3.566525	-1.378229	 35.397820	-2.634230	 1.065497	-0.909807	-2.674243	-0.721800	-8.705916	 1.477264	 94.534960	 86.599700	 171.426000	-28.973450	 79.940150	 30.801090	 2.896531	-8.029442	 25.736550	-28.226280	-6.052303	 9.541078	-8.564269	-7.961252	-37.192200	 5.070815	-0.697434	-9.399699	-2.350882	 35.473990	 5.254307
-4.191478	-21.852990	 1.081498	-21.834750	 19.783990	 3.756531	 3.186669	-32.462360	 175.379000	-2.309973	-42.049940	-1.203544	-1.432878	 82.276180	 0.091187	-2.314829	 38.444050	-0.234671	-0.871082	-32.800680	-179.542900	-2.715300	-39.505950	-0.871971	-1.842986	 84.016530	 1.009040	 2.405650	 20.809820	-0.156980	-1.288064	 12.501510	 1.593830	-2.958438	 0.380568	-1.421226	-4.450933	-5.286169	-0.498512	-110.853400	 88.845630	-156.773600	 59.542770	 69.612210	-61.026390	-17.578500	 1.914147	-25.911430	-0.651788	-5.071470	-5.385329	-6.327001	-15.370580	-2.567658	-5.213516	-0.193813	 3.566525	-1.378229	 35.397820	-2.634230	 1.086156	-0.878639	-2.778297	-0.918543	-8.719673	 1.573729	 94.451500	 86.560430	 171.515000	-33.586470	 79.556650	 35.941100	 2.689921	-8.153605	 26.386760	-27.904550	-6.046894	 9.553218	-8.535908	-8.018455	-37.085290	 5.070815	-0.697434	-9.399699	-2.350882	 35.473990	 5.254307
